:SAMPLES-PER-SECOND 30
:FRAME-RANGE 1-1700
:FULLY-SPECIFIED
:DEGREES
1488
root  67.5623 39.5762 -31.2262 -10.1336 -10.2034 8.87018
RightUpLeg  3.20624 6.48746 -8.38658
RightLeg  38.798 8.34474 6.86928
RightFoot  -17.8116 0.109073 4.06383
RightToes  6.35937e-011 1.2921e-014 -6.02303e-014
Spine  15.8504 2.50675 0.606924
Spine1  -4.08443 0.90983 2.64603
HEad  -6.1472 -0.33641 -3.23789
LeftShoulder1  2.12154 -7.9759 -11.9298
LeftArm  28.6961 -40.5158 -91.4164
LeftForeArm  73.2364 4.04872 -15.3887
LeftHand  -0.25205 14.1253 -2.22636
RightShoulder  3.95009 9.23087 25.5563
RightArm  -17.6319 29.6586 71.0803
RightForeArm  88.9351 -4.27541 2.18206
RightHand  0.442241 -7.87826 -21.0602
LeftUpLeg  -97.4651 9.9279 -45.2735
LeftLeg  111.897 -3.56114 7.30905
LeftFoot  -31.2899 -0.289966 -2.721
LeftToes  -1.9349e-011 5.45182e-011 1.33515e-010
1489
root  67.9175 40.8791 -29.4788 -10.3371 -10.0218 9.16046
RightUpLeg  4.26544 9.37012 -7.96033
RightLeg  38.6501 5.44941 4.38357
RightFoot  -7.72714 -0.241431 5.9799
RightToes  6.35937e-011 1.2921e-014 -6.02303e-014
Spine  14.5349 2.29851 1.71501
Spine1  -4.31553 0.814323 2.93863
HEad  -4.39942 0.508228 -4.13094
LeftShoulder1  2.11284 -7.68177 -12.3999
LeftArm  28.3222 -40.488 -89.6522
LeftForeArm  70.4267 4.06704 -15.4961
LeftHand  -0.263711 13.7585 -2.50606
RightShoulder  4.07896 9.50587 25.9018
RightArm  -19.0721 29.2148 71.928
RightForeArm  90.8314 -3.97754 0.930928
RightHand  0.530383 -8.3398 -21.2103
LeftUpLeg  -98.3273 10.7664 -44.1368
LeftLeg  112.894 -2.46511 4.63914
LeftFoot  -32.0225 -0.337353 -2.90701
LeftToes  -1.9349e-011 5.45182e-011 1.33515e-010
1490
root  68.2474 41.7248 -27.961 -10.7119 -8.0791 9.25702
RightUpLeg  2.99653 9.71803 -6.92275
RightLeg  43.1623 1.62116 1.3199
RightFoot  -1.4088 -0.240302 2.65355
RightToes  6.35937e-011 1.2921e-014 -6.02303e-014
Spine  14.4987 2.08874 1.33572
Spine1  -4.56412 0.361937 4.51906
HEad  -2.97531 0.316442 -4.42609
LeftShoulder1  2.23865 -8.78196 -11.6122
LeftArm  22.8057 -40.2445 -89.6276
LeftForeArm  73.5769 4.98494 -14.7468
LeftHand  -0.216793 13.2811 -2.03215
RightShoulder  4.0638 9.31423 26.2809
RightArm  -20.4387 29.5615 71.3908
RightForeArm  92.2736 -3.71756 -0.206082
RightHand  0.541664 -8.44743 -20.9159
LeftUpLeg  -97.0125 10.3456 -43.8
LeftLeg  112.338 -2.05987 3.8727
LeftFoot  -31.9533 -0.413068 -3.33075
LeftToes  -1.9349e-011 5.45182e-011 1.33515e-010
1491
root  68.593 41.989 -26.7316 -10.6354 -6.16494 10.2873
RightUpLeg  0.855057 9.23659 -7.74485
RightLeg  45.2564 4.1099 4.11446
RightFoot  -5.51475 -0.167453 2.55254
RightToes  6.35937e-011 1.2921e-014 -6.02303e-014
Spine  15.4286 2.19418 0.289848
Spine1  -4.19042 0.296625 4.74765
HEad  -4.06922 -0.582559 -3.93449
LeftShoulder1  2.25693 -8.31987 -12.6025
LeftArm  28.6543 -40.3961 -91.0627
LeftForeArm  71.5334 3.98905 -15.4922
LeftHand  -0.185813 13.3689 -1.57049
RightShoulder  3.99174 9.12313 26.192
RightArm  -20.1737 30.1848 70.2039
RightForeArm  91.5216 -3.80367 0.0952252
RightHand  0.532482 -8.39212 -20.9447
LeftUpLeg  -95.811 9.2732 -44.9815
LeftLeg  110.836 -2.16632 4.42028
LeftFoot  -31.3122 -0.395065 -3.31527
LeftToes  -1.9349e-011 5.45182e-011 1.33515e-010
1492
root  68.8968 41.9934 -25.5653 -9.68304 -5.49977 10.7713
RightUpLeg  -1.47032 8.22842 -7.62372
RightLeg  40.1594 4.15541 3.46899
RightFoot  -9.42386 -0.136405 4.32329
RightToes  6.35937e-011 1.2921e-014 -6.02303e-014
Spine  16.5036 2.39469 0.464504
Spine1  -3.79985 0.654447 3.90977
HEad  -6.3457 -1.03862 -3.00396
LeftShoulder1  2.31527 -8.44009 -12.9316
LeftArm  29.6737 -40.0987 -91.7469
LeftForeArm  73.7369 3.84497 -15.4802
LeftHand  -0.156932 14.2433 -0.990929
RightShoulder  3.97861 9.13725 26.0438
RightArm  -19.2829 30.7503 69.3182
RightForeArm  90.3443 -3.99112 0.879376
RightHand  0.504363 -8.2158 -21.0871
LeftUpLeg  -95.3115 9.02297 -45.2721
LeftLeg  109.635 -1.55865 3.17406
LeftFoot  -31.0568 -0.472361 -3.79448
LeftToes  -1.9349e-011 5.45182e-011 1.33515e-010
1493
root  69.1732 41.5732 -24.4944 -8.26395 -5.8587 11.2155
RightUpLeg  -4.59091 7.3892 -6.9864
RightLeg  32.978 1.08552 0.508928
RightFoot  -15.3849 0.0829941 5.30376
RightToes  6.35937e-011 1.2921e-014 -6.02303e-014
Spine  17.6508 2.69947 0.679473
Spine1  -3.56684 1.21344 2.99082
HEad  -7.64546 -0.993652 -2.80845
LeftShoulder1  2.34339 -8.55221 -12.9874
LeftArm  28.9877 -40.9074 -92.3595
LeftForeArm  75.1958 4.05072 -15.3068
LeftHand  -0.156027 14.5526 -0.925504
RightShoulder  4.02728 9.45406 25.6132
RightArm  -19.2835 31.4119 69.4778
RightForeArm  89.9422 -3.97632 0.683865
RightHand  0.474895 -8.05931 -21.0492
LeftUpLeg  -95.778 9.2954 -44.8982
LeftLeg  108.827 -0.762716 1.22313
LeftFoot  -30.7325 -0.568596 -4.41012
LeftToes  -1.9349e-011 5.45182e-011 1.33515e-010
1494
root  69.4658 40.7127 -23.4206 -7.42502 -6.12049 11.5435
RightUpLeg  -7.41547 6.12422 -6.21884
RightLeg  27.5336 -1.5685 -1.11863
RightFoot  -19.855 0.426809 7.53574
RightToes  6.35937e-011 1.2921e-014 -6.02303e-014
Spine  19.2853 2.62845 0.853993
Spine1  -3.45946 1.44445 2.3108
HEad  -7.23123 -0.508149 -3.90918
LeftShoulder1  2.25931 -8.32646 -12.613
LeftArm  28.7054 -41.5605 -93.0614
LeftForeArm  75.8251 4.26341 -15.1518
LeftHand  -0.19876 14.9843 -1.35242
RightShoulder  4.13356 9.82637 25.5242
RightArm  -19.2193 32.1456 69.9584
RightForeArm  89.7547 -3.94206 0.431985
RightHand  0.461115 -7.97582 -21.1064
LeftUpLeg  -95.8633 9.50454 -43.5652
LeftLeg  108.398 -0.577698 0.754405
LeftFoot  -30.5626 -0.54262 -4.29043
LeftToes  -1.9349e-011 5.45182e-011 1.33515e-010
1495
root  69.7853 39.4397 -22.1306 -7.9549 -5.28971 11.8674
RightUpLeg  -8.58308 5.2828 -6.04055
RightLeg  26.3918 0.454859 0.0176836
RightFoot  -18.3262 0.395717 8.5099
RightToes  6.35937e-011 1.2921e-014 -6.02303e-014
Spine  20.2579 2.57848 0.722917
Spine1  -2.54888 1.34959 2.72698
HEad  -5.20934 -0.0452658 -5.31479
LeftShoulder1  2.1712 -8.05259 -12.2733
LeftArm  30.4642 -42.1928 -95.4029
LeftForeArm  79.1811 4.0373 -15.1537
LeftHand  -0.219556 15.7514 -1.42971
RightShoulder  4.20156 10.0455 25.5168
RightArm  -18.9648 32.2884 69.5582
RightForeArm  88.4414 -4.05593 0.750057
RightHand  0.420138 -7.74097 -21.1884
LeftUpLeg  -94.5307 9.141 -41.6922
LeftLeg  108.574 -1.29748 2.66292
LeftFoot  -30.3781 -0.396623 -3.45611
LeftToes  -1.9349e-011 5.45182e-011 1.33515e-010
1496
root  69.9868 38.0006 -20.5384 -9.86401 -4.05384 11.2953
RightUpLeg  -9.62546 7.86326 -4.01414
RightLeg  38.0362 -1.14523 -1.2396
RightFoot  -24.0953 -0.0436447 1.07034
RightToes  6.35937e-011 1.2921e-014 -6.02303e-014
Spine  20.5616 3.15284 1.56825
Spine1  -1.75134 1.52948 4.07311
HEad  -1.7192 0.800813 -5.75372
LeftShoulder1  2.11063 -7.74908 -12.2482
LeftArm  29.8224 -42.2669 -98.0431
LeftForeArm  85.7014 4.24291 -14.7529
LeftHand  -0.316725 16.3618 -2.30203
RightShoulder  4.11828 9.79928 25.4702
RightArm  -18.0897 32.0136 68.4308
RightForeArm  86.6889 -4.31916 1.83816
RightHand  0.320665 -7.20058 -21.1512
LeftUpLeg  -92.3846 9.54795 -38.7599
LeftLeg  109.661 -2.02149 4.33206
LeftFoot  -30.5222 -0.2288 -2.44224
LeftToes  -1.9349e-011 5.45182e-011 1.33515e-010
1497
root  70.3266 36.4394 -19.1265 -13.4464 -0.577841 11.014
RightUpLeg  -8.68618 2.95908 -4.92437
RightLeg  50.4101 -0.974096 -1.62653
RightFoot  -30.5883 -0.532543 -1.91457
RightToes  6.35937e-011 1.2921e-014 -6.02303e-014
Spine  22.3079 1.9606 1.62518
Spine1  0.912561 0.500305 3.95592
HEad  -0.715156 3.11754 -4.49239
LeftShoulder1  2.03894 -7.695 -11.6301
LeftArm  35.3008 -41.5975 -99.1123
LeftForeArm  85.3768 3.3996 -15.298
LeftHand  -0.333601 16.6891 -2.38331
RightShoulder  4.17072 9.45782 26.7766
RightArm  -16.6581 32.7046 66.5023
RightForeArm  85.0004 -4.63985 3.30118
RightHand  0.315144 -7.12718 -21.6211
LeftUpLeg  -88.7628 8.52401 -38.1322
LeftLeg  109.205 -3.47322 8.129
LeftFoot  -30.1304 0.0542475 -0.769235
LeftToes  -1.9349e-011 5.45182e-011 1.33515e-010
1498
root  70.5169 35.64 -17.3857 -13.0682 3.45486 11.7281
RightUpLeg  -6.81295 -1.21038 -7.43442
RightLeg  54.9743 -0.417552 -1.05952
RightFoot  -36.9879 -0.521768 -1.18163
RightToes  6.35937e-011 1.2921e-014 -6.02303e-014
Spine  20.0482 1.8766 -0.0880579
Spine1  1.13754 -0.227063 5.5046
HEad  0.0726247 3.55728 -3.921
LeftShoulder1  2.21073 -7.89744 -12.9564
LeftArm  35.5773 -41.1032 -99.2492
LeftForeArm  86.3755 3.12811 -15.4097
LeftHand  -0.343295 16.7787 -2.45436
RightShoulder  3.90516 8.61446 26.8616
RightArm  -17.8943 31.8598 65.8705
RightForeArm  85.2609 -4.51617 2.63029
RightHand  0.29299 -6.99086 -21.8333
LeftUpLeg  -87.8849 5.7629 -39.5808
LeftLeg  108.825 -3.09148 7.30742
LeftFoot  -30.0325 -0.0767156 -1.56529
LeftToes  -1.9349e-011 5.45182e-011 1.33515e-010
